<svg id="svg" version="1.1" xmlns="http://www.w3.org/2000/svg" xmlns:xlink="http://www.w3.org/1999/xlink" width="400" height="210" viewBox="0, 0, 400,210"><g id="svgg"><path id="path0" d="M178.568 58.770 C 178.566 73.185,178.491 85.096,178.400 85.239 C 178.270 85.444,172.617 85.501,151.954 85.507 L 125.673 85.514 125.551 86.003 C 125.388 86.652,125.386 130.969,125.549 131.393 C 125.663 131.690,128.264 131.723,151.768 131.723 C 172.313 131.723,177.936 131.779,178.217 131.985 C 178.547 132.229,178.576 134.115,178.624 158.508 L 178.676 184.769 201.343 184.822 C 217.918 184.861,224.086 184.812,224.295 184.639 C 224.532 184.442,224.580 180.034,224.580 158.315 C 224.580 138.304,224.639 132.168,224.832 131.975 C 225.025 131.781,231.158 131.723,251.155 131.723 C 271.153 131.723,277.286 131.664,277.479 131.471 C 277.921 131.029,277.836 85.800,277.393 85.630 C 277.208 85.558,265.330 85.503,250.997 85.507 C 236.665 85.510,224.882 85.456,224.812 85.386 C 224.742 85.316,224.638 73.426,224.580 58.964 L 224.475 32.668 201.523 32.615 L 178.571 32.561 178.568 58.770 " stroke="none" fill="#fb0404" fill-rule="evenodd"></path><path id="path1" d="M0.000 105.042 L 0.000 210.084 200.000 210.084 L 400.000 210.084 400.000 105.042 L 400.000 0.000 200.000 0.000 L 0.000 0.000 0.000 105.042 M225.000 58.298 C 225.058 72.742,225.182 84.677,225.275 84.821 C 225.409 85.029,230.896 85.084,251.546 85.084 C 271.567 85.084,277.706 85.143,277.899 85.336 C 278.191 85.628,278.269 131.421,277.979 131.879 C 277.848 132.086,272.222 132.153,251.459 132.195 L 225.105 132.248 225.058 158.492 C 225.032 172.926,224.985 184.815,224.952 184.913 C 224.886 185.111,178.464 185.172,178.144 184.975 C 178.015 184.895,177.941 175.237,177.941 158.496 L 177.941 132.143 151.723 132.143 C 131.611 132.143,125.445 132.084,125.252 131.891 C 124.855 131.494,124.890 85.647,125.287 85.317 C 125.497 85.143,132.600 85.066,151.705 85.029 L 177.836 84.979 177.889 58.839 C 177.938 34.856,177.972 32.668,178.291 32.315 C 178.624 31.947,179.589 31.933,201.767 31.984 L 224.895 32.038 225.000 58.298 " stroke="none" fill="#fbfbfb" fill-rule="evenodd"></path><path id="path2" d="M178.502 32.282 C 178.425 32.360,178.361 44.206,178.361 58.606 C 178.361 78.691,178.303 84.849,178.109 85.042 C 177.916 85.235,171.783 85.294,151.786 85.294 C 131.788 85.294,125.656 85.353,125.462 85.546 C 125.195 85.813,125.073 130.911,125.338 131.600 C 125.453 131.901,127.961 131.933,151.581 131.933 C 165.945 131.933,177.846 131.990,178.029 132.060 C 178.330 132.176,178.361 134.701,178.361 158.508 C 178.361 182.316,178.393 184.841,178.694 184.957 C 179.128 185.123,224.023 185.123,224.458 184.957 C 224.758 184.841,224.790 182.325,224.790 158.617 C 224.790 136.889,224.838 132.364,225.073 132.169 C 225.278 132.000,232.629 131.920,251.596 131.881 L 277.836 131.828 277.890 108.846 C 277.929 92.038,277.879 85.788,277.706 85.579 C 277.509 85.342,273.098 85.294,251.366 85.294 C 229.729 85.294,225.221 85.246,225.027 85.011 C 224.857 84.806,224.777 77.455,224.738 58.488 L 224.685 32.248 201.664 32.194 C 189.003 32.165,178.580 32.204,178.502 32.282 M224.580 58.964 C 224.638 73.426,224.742 85.316,224.812 85.386 C 224.882 85.456,236.665 85.510,250.997 85.507 C 265.330 85.503,277.208 85.558,277.393 85.630 C 277.836 85.800,277.921 131.029,277.479 131.471 C 277.286 131.664,271.153 131.723,251.155 131.723 C 231.158 131.723,225.025 131.781,224.832 131.975 C 224.639 132.168,224.580 138.304,224.580 158.315 C 224.580 180.034,224.532 184.442,224.295 184.639 C 224.086 184.812,217.918 184.861,201.343 184.822 L 178.676 184.769 178.624 158.508 C 178.576 134.115,178.547 132.229,178.217 131.985 C 177.936 131.779,172.313 131.723,151.768 131.723 C 128.264 131.723,125.663 131.690,125.549 131.393 C 125.386 130.969,125.388 86.652,125.551 86.003 L 125.673 85.514 151.954 85.507 C 172.617 85.501,178.270 85.444,178.400 85.239 C 178.491 85.096,178.566 73.185,178.568 58.770 L 178.571 32.561 201.523 32.615 L 224.475 32.668 224.580 58.964 " stroke="none" fill="#fc7c7c" fill-rule="evenodd"></path><path id="path3" d="M178.291 32.315 C 177.972 32.668,177.938 34.856,177.889 58.839 L 177.836 84.979 151.705 85.029 C 132.600 85.066,125.497 85.143,125.287 85.317 C 124.890 85.647,124.855 131.494,125.252 131.891 C 125.445 132.084,131.611 132.143,151.723 132.143 L 177.941 132.143 177.941 158.501 C 177.941 187.987,177.801 185.321,179.345 185.278 C 179.969 185.260,179.886 185.202,178.939 184.993 L 178.361 184.866 178.361 158.527 C 178.361 134.703,178.330 132.176,178.029 132.060 C 177.846 131.990,165.945 131.933,151.581 131.933 C 127.961 131.933,125.453 131.901,125.338 131.600 C 125.073 130.911,125.195 85.813,125.462 85.546 C 125.656 85.353,131.792 85.294,151.802 85.294 C 173.425 85.294,177.930 85.246,178.125 85.011 C 178.295 84.806,178.374 77.455,178.413 58.488 L 178.466 32.248 201.576 32.248 L 224.685 32.248 224.738 58.488 C 224.777 77.455,224.857 84.806,225.027 85.011 C 225.221 85.246,229.729 85.294,251.366 85.294 C 273.098 85.294,277.509 85.342,277.706 85.579 C 277.879 85.788,277.929 92.038,277.890 108.846 L 277.836 131.828 251.596 131.881 C 232.629 131.920,225.278 132.000,225.073 132.169 C 224.838 132.364,224.790 136.890,224.790 158.622 L 224.790 184.839 224.212 185.050 C 223.763 185.214,223.728 185.264,224.055 185.274 C 225.055 185.306,225.008 186.547,225.058 158.598 L 225.105 132.248 251.459 132.195 C 272.222 132.153,277.848 132.086,277.979 131.879 C 278.269 131.421,278.191 85.628,277.899 85.336 C 277.706 85.143,271.567 85.084,251.546 85.084 C 230.896 85.084,225.409 85.029,225.275 84.821 C 225.182 84.677,225.058 72.742,225.000 58.298 L 224.895 32.038 201.767 31.984 C 179.589 31.933,178.624 31.947,178.291 32.315 " stroke="none" fill="#f69392" fill-rule="evenodd"></path></g></svg>